<?xml version="1.0" encoding="us-ascii" standalone="no"?><svg xmlns="http://www.w3.org/2000/svg" xmlns:xlink="http://www.w3.org/1999/xlink" contentStyleType="text/css" height="1650px" preserveAspectRatio="none" style="width:668px;height:1650px;background:#FFFFFF;" version="1.1" viewBox="0 0 668 1650" width="668.75px" zoomAndPan="magnify"><defs/><g><ellipse cx="296.875" cy="62.5" fill="#222222" rx="31.25" ry="31.25" style="stroke:#222222;stroke-width:3.125;"/><rect fill="none" height="1359.6802" style="stroke:#000000;stroke-width:4.6875;" width="600" x="34.375" y="125"/><path d="M440.625,125 L440.625,154.6509 L409.375,185.9009 L34.375,185.9009 " fill="none" style="stroke:#000000;stroke-width:4.6875;"/><text fill="#000000" font-family="sans-serif" font-size="43.75" lengthAdjust="spacing" textLength="375" x="43.75" y="170.4224">Session Life Cycle</text><rect fill="#EED2D3" height="106.665" rx="39.0625" ry="39.0625" style="stroke:#181818;stroke-width:1.5625;" width="290.625" x="151.5625" y="239.0259"/><text fill="#000000" font-family="sans-serif" font-size="37.5" lengthAdjust="spacing" textLength="228.125" x="182.8125" y="306.5308">init_session()</text><rect fill="none" height="539.7156" style="stroke:#000000;stroke-width:4.6875;" width="462.5" x="65.625" y="514.4409"/><text fill="#000000" font-family="sans-serif" font-size="43.75" lengthAdjust="spacing" textLength="400" x="96.875" y="562.9883">Request/Response</text><rect fill="#EED2D3" height="106.665" rx="39.0625" ry="39.0625" style="stroke:#181818;stroke-width:1.5625;" width="259.375" x="167.1875" y="628.4668"/><text fill="#000000" font-family="sans-serif" font-size="37.5" lengthAdjust="spacing" textLength="196.875" x="198.4375" y="695.9717">wrap_req()</text><rect fill="#F1F1F1" height="106.665" rx="39.0625" ry="39.0625" style="stroke:#181818;stroke-width:1.5625;" width="381.25" x="106.25" y="884.9915"/><text fill="#000000" font-family="sans-serif" font-size="37.5" lengthAdjust="spacing" textLength="318.75" x="137.5" y="952.4963">Send and Receive</text><rect fill="#EED2D3" height="106.665" rx="39.0625" ry="39.0625" style="stroke:#181818;stroke-width:1.5625;" width="365.625" x="114.0625" y="1178.0151"/><text fill="#000000" font-family="sans-serif" font-size="37.5" lengthAdjust="spacing" textLength="303.125" x="145.3125" y="1245.52">update_session()</text><polygon fill="#EED2D3" points="296.875,408.1909,334.375,445.6909,296.875,483.1909,259.375,445.6909,296.875,408.1909" style="stroke:#181818;stroke-width:1.5625;"/><polygon fill="#EED2D3" points="106.25,1347.1802,487.5,1347.1802,525,1384.6802,487.5,1422.1802,106.25,1422.1802,68.75,1384.6802,106.25,1347.1802" style="stroke:#181818;stroke-width:1.5625;"/><text fill="#000000" font-family="sans-serif" font-size="34.375" lengthAdjust="spacing" textLength="84.375" x="309.375" y="1455.4138">False</text><text fill="#000000" font-family="sans-serif" font-size="34.375" lengthAdjust="spacing" textLength="381.25" x="106.25" y="1397.6715">should_stop_session()</text><text fill="#000000" font-family="sans-serif" font-size="34.375" lengthAdjust="spacing" textLength="78.125" x="525" y="1377.4292">True</text><ellipse cx="296.875" cy="1581.5552" fill="none" rx="34.375" ry="34.375" style="stroke:#222222;stroke-width:3.125;"/><ellipse cx="296.875" cy="1581.5552" fill="#222222" rx="18.75" ry="18.75" style="stroke:#222222;stroke-width:3.125;"/><line style="stroke:#181818;stroke-width:3.125;" x1="296.875" x2="296.875" y1="735.1318" y2="884.9915"/><polygon fill="#181818" points="284.375,853.7415,296.875,884.9915,309.375,853.7415,296.875,866.2415" style="stroke:#181818;stroke-width:3.125;"/><text fill="#000000" font-family="sans-serif" font-size="34.375" lengthAdjust="spacing" textLength="56.25" x="309.375" y="823.053">req</text><line style="stroke:#181818;stroke-width:3.125;" x1="296.875" x2="296.875" y1="991.6565" y2="1178.0151"/><polygon fill="#181818" points="284.375,1146.7651,296.875,1178.0151,309.375,1146.7651,296.875,1159.2651" style="stroke:#181818;stroke-width:3.125;"/><text fill="#000000" font-family="sans-serif" font-size="34.375" lengthAdjust="spacing" textLength="56.25" x="309.375" y="1110.8276">rsp</text><line style="stroke:#181818;stroke-width:3.125;" x1="296.875" x2="296.875" y1="483.1909" y2="628.4668"/><polygon fill="#181818" points="284.375,597.2168,296.875,628.4668,309.375,597.2168,296.875,609.7168" style="stroke:#181818;stroke-width:3.125;"/><line style="stroke:#181818;stroke-width:3.125;" x1="525" x2="565.625" y1="1384.6802" y2="1384.6802"/><polygon fill="#181818" points="553.125,943.811,565.625,912.561,578.125,943.811,565.625,931.311" style="stroke:#181818;stroke-width:3.125;"/><line style="stroke:#181818;stroke-width:3.125;" x1="565.625" x2="565.625" y1="445.6909" y2="1384.6802"/><line style="stroke:#181818;stroke-width:3.125;" x1="565.625" x2="334.375" y1="445.6909" y2="445.6909"/><polygon fill="#181818" points="365.625,433.1909,334.375,445.6909,365.625,458.1909,353.125,445.6909" style="stroke:#181818;stroke-width:3.125;"/><line style="stroke:#181818;stroke-width:3.125;" x1="296.875" x2="296.875" y1="1284.6802" y2="1347.1802"/><polygon fill="#181818" points="284.375,1315.9302,296.875,1347.1802,309.375,1315.9302,296.875,1328.4302" style="stroke:#181818;stroke-width:3.125;"/><line style="stroke:#181818;stroke-width:3.125;" x1="296.875" x2="296.875" y1="345.6909" y2="408.1909"/><polygon fill="#181818" points="284.375,376.9409,296.875,408.1909,309.375,376.9409,296.875,389.4409" style="stroke:#181818;stroke-width:3.125;"/><line style="stroke:#181818;stroke-width:3.125;" x1="296.875" x2="296.875" y1="93.75" y2="239.0259"/><polygon fill="#181818" points="284.375,207.7759,296.875,239.0259,309.375,207.7759,296.875,220.2759" style="stroke:#181818;stroke-width:3.125;"/><line style="stroke:#181818;stroke-width:3.125;" x1="296.875" x2="296.875" y1="1422.1802" y2="1547.1802"/><polygon fill="#181818" points="284.375,1515.9302,296.875,1547.1802,309.375,1515.9302,296.875,1528.4302" style="stroke:#181818;stroke-width:3.125;"/><!--SRC=[ROunRy9038Lt_mehNPAXAe8jI1rAwDGfT8-id0iMuUuuEo24-jzxQOleqC7oa_tPxwbHCW3TYu-Kw80k2YvcipyJwarEOfT6w12yUw5-lqrXz6uLXf3mORrkviq2039kOX8y5XjMdSIRV32kBlt01Lu1VjbQl5YdFqnPBG4IHoRBhJVosu6nQFauijfJong3r-zxl9dLvqInItoSZX4Vdp7hITKRzWufLyizoublQurB-Bm76ACZutyYu7adsRxKNHW7rwc5UASgH54itzF85VfWMBxIe5n1VZsH05y0]--></g></svg>